<svg class="main-svg" xmlns="http://www.w3.org/2000/svg" xmlns:xlink="http://www.w3.org/1999/xlink" width="700" height="500" style="" viewBox="0 0 700 500"><rect x="0" y="0" width="700" height="500" style="fill: rgb(255, 255, 255); fill-opacity: 1;"/><defs id="defs-8e0bc7"><g class="clips"><clipPath id="clip8e0bc7xyplot" class="plotclip"><rect width="468" height="320"/></clipPath><clipPath class="axesclip" id="clip8e0bc7x"><rect x="80" y="0" width="468" height="500"/></clipPath><clipPath class="axesclip" id="clip8e0bc7y"><rect x="0" y="100" width="700" height="320"/></clipPath><clipPath class="axesclip" id="clip8e0bc7xy"><rect x="80" y="100" width="468" height="320"/></clipPath></g><g class="gradients"/><g class="patterns"/></defs><g class="bglayer"><rect class="bg" x="80" y="100" width="468" height="320" style="fill: rgb(229, 236, 246); fill-opacity: 1; stroke-width: 0;"/></g><g class="layer-below"><g class="imagelayer"/><g class="shapelayer"/></g><g class="cartesianlayer"><g class="subplot xy"><g class="layer-subplot"><g class="shapelayer"/><g class="imagelayer"/></g><g class="minor-gridlayer"><g class="x"/><g class="y"/></g><g class="gridlayer"><g class="x"><path class="xgrid crisp" transform="translate(135.24,0)" d="M0,100v320" style="stroke: rgb(255, 255, 255); stroke-opacity: 1; stroke-width: 1px;"/><path class="xgrid crisp" transform="translate(206.26999999999998,0)" d="M0,100v320" style="stroke: rgb(255, 255, 255); stroke-opacity: 1; stroke-width: 1px;"/><path class="xgrid crisp" transform="translate(277.3,0)" d="M0,100v320" style="stroke: rgb(255, 255, 255); stroke-opacity: 1; stroke-width: 1px;"/><path class="xgrid crisp" transform="translate(348.33,0)" d="M0,100v320" style="stroke: rgb(255, 255, 255); stroke-opacity: 1; stroke-width: 1px;"/><path class="xgrid crisp" transform="translate(419.36,0)" d="M0,100v320" style="stroke: rgb(255, 255, 255); stroke-opacity: 1; stroke-width: 1px;"/><path class="xgrid crisp" transform="translate(490.39,0)" d="M0,100v320" style="stroke: rgb(255, 255, 255); stroke-opacity: 1; stroke-width: 1px;"/></g><g class="y"><path class="ygrid crisp" transform="translate(0,310.78)" d="M80,0h468" style="stroke: rgb(255, 255, 255); stroke-opacity: 1; stroke-width: 1px;"/><path class="ygrid crisp" transform="translate(0,256.68)" d="M80,0h468" style="stroke: rgb(255, 255, 255); stroke-opacity: 1; stroke-width: 1px;"/><path class="ygrid crisp" transform="translate(0,202.57)" d="M80,0h468" style="stroke: rgb(255, 255, 255); stroke-opacity: 1; stroke-width: 1px;"/><path class="ygrid crisp" transform="translate(0,148.46)" d="M80,0h468" style="stroke: rgb(255, 255, 255); stroke-opacity: 1; stroke-width: 1px;"/></g></g><g class="zerolinelayer"><path class="yzl zl crisp" transform="translate(0,364.89)" d="M80,0h468" style="stroke: rgb(255, 255, 255); stroke-opacity: 1; stroke-width: 2px;"/></g><path class="xlines-below"/><path class="ylines-below"/><g class="overlines-below"/><g class="xaxislayer-below"/><g class="yaxislayer-below"/><g class="overaxes-below"/><g class="plot" transform="translate(80,100)" clip-path="url(#clip8e0bc7xyplot)"><g class="scatterlayer mlayer"><g class="trace scatter traceb0a4af" style="stroke-miterlimit: 2; opacity: 1;"><g class="fills"/><g class="errorbars"/><g class="lines"><path class="js-line" d="M0,254.07L24.47,259.48L48.93,259.48L73.4,259.48L97.86,254.07L126.67,259.48L127.46,243.25L128.25,248.66L128.64,259.48L131.4,259.48L132.19,59.29L133.38,259.48L133.77,254.07L134.17,254.07L134.56,259.48L135.74,259.48L136.53,254.07L137.32,254.07L138.51,259.48L138.9,259.48L139.3,254.07L140.08,254.07L140.48,259.48L141.66,259.48L142.06,254.07L142.85,259.48L143.64,254.07L144.03,259.48L144.42,254.07L145.21,259.48L145.61,254.07L149.55,254.07L150.34,248.66L150.74,243.25L151.13,254.07L151.53,259.48L152.71,254.07L153.5,254.07L153.9,243.25L155.47,259.48L156.26,254.07L156.66,254.07L157.05,237.84L157.84,259.48L158.24,254.07L158.63,248.66L159.03,259.48L159.81,243.25L160.21,254.07L160.6,243.25L161,259.48L161.79,243.25L162.58,259.48L163.76,248.66L164.16,259.48L164.94,243.25L165.34,248.66L165.73,248.66L166.13,254.07L166.92,254.07L167.31,254.07L167.71,259.48L168.89,259.48L169.68,254.07L170.07,254.07L170.47,248.66L171.26,259.48L172.05,259.48L173.23,259.48L173.63,248.66L174.02,248.66L174.41,254.07L174.81,259.48L175.2,16L175.99,254.07L176.39,248.66L176.78,248.66L177.18,254.07L177.97,259.48L178.36,243.25L179.15,248.66L179.54,243.25L180.73,259.48L181.52,243.25L182.7,259.48L183.1,254.07L183.49,248.66L183.89,259.48L184.28,237.84L184.67,254.07L185.07,259.48L185.86,232.43L186.65,248.66L187.04,248.66L187.44,254.07L188.23,259.48L188.62,254.07L189.41,254.07L190.2,259.48L190.59,259.48L190.99,254.07L191.38,254.07L191.78,259.48L192.17,259.48L192.57,254.07L193.36,254.07L193.75,259.48L194.15,248.66L194.54,259.48L194.93,254.07L195.33,259.48L195.72,243.25L196.12,259.48L197.7,259.48L198.49,254.07L199.67,259.48L201.64,259.48L211.51,259.48L212.3,254.07L212.69,259.48L213.48,259.48L215.06,259.48L216.64,254.07L218.22,254.07L219.4,259.48L221.37,259.48L221.77,254.07L222.16,248.66L222.95,254.07L223.74,259.48L224.13,254.07L224.92,259.48L225.71,259.48L226.11,259.48L226.5,254.07L226.9,259.48L227.29,254.07L228.08,254.07L228.48,248.66L229.66,259.48L230.05,248.66L230.84,259.48L231.24,259.48L232.03,254.07L232.42,259.48L232.82,254.07L234,248.66L234.39,248.66L235.58,259.48L235.97,254.07L236.37,259.48L236.76,254.07L237.16,259.48L237.95,259.48L238.34,243.25L238.74,259.48L239.13,254.07L239.92,259.48L240.71,259.48L241.1,248.66L241.5,259.48L241.89,243.25L243.08,259.48L244.65,259.48L245.05,254.07L245.84,254.07L249.39,254.07L250.57,248.66L251.36,259.48L251.76,259.48L252.55,259.48L252.94,248.66L253.34,248.66L253.73,259.48L254.12,243.25L254.91,248.66L256.1,259.48L256.49,248.66L258.07,243.25L258.47,254.07L258.86,259.48L259.25,254.07L260.44,254.07L260.83,248.66L261.23,254.07L261.62,243.25L262.81,254.07L263.2,259.48L263.6,254.07L263.99,259.48L264.78,243.25L265.17,248.66L265.57,248.66L265.96,259.48L266.75,75.52L267.15,248.66L268.33,259.48L268.73,248.66L269.12,248.66L269.51,254.07L269.91,248.66L270.3,254.07L270.7,243.25L271.09,259.48L271.49,259.48L271.88,243.25L273.07,254.07L273.85,254.07L274.25,254.07L274.64,243.25L275.04,259.48L275.83,254.07L276.22,259.48L276.62,232.43L277.01,254.07L277.41,243.25L277.8,248.66L278.98,259.48L279.38,254.07L279.77,254.07L280.17,248.66L280.56,243.25L280.96,254.07L281.35,243.25L281.75,248.66L282.93,259.48L283.72,254.07L284.11,254.07L284.51,259.48L285.3,259.48L286.48,237.84L286.88,254.07L287.27,254.07L288.06,243.25L288.85,248.66L289.24,259.48L289.64,248.66L290.03,254.07L290.43,254.07L291.22,248.66L292.01,259.48L292.4,254.07L292.8,259.48L293.19,237.84L293.59,243.25L293.98,259.48L295.16,259.48L296.35,254.07L297.14,254.07L297.53,259.48L298.72,259.48L299.11,254.07L299.5,254.07L299.9,248.66L300.29,259.48L300.69,243.25L301.48,259.48L301.87,254.07L302.27,254.07L303.84,237.84L305.03,254.07L305.42,254.07L305.82,259.48L306.21,248.66L306.61,254.07L308.58,254.07L309.37,259.48L309.76,254.07L310.95,259.48L311.74,254.07L312.92,237.84L313.32,259.48L313.71,243.25L314.1,259.48L314.5,259.48L314.89,248.66L316.08,259.48L316.87,248.66L317.26,254.07L317.66,248.66L318.45,259.48L319.23,248.66L319.63,254.07L320.42,248.66L321.6,259.48L322.39,248.66L322.79,243.25L323.18,259.48L324.76,259.48L325.15,248.66L325.94,259.48L326.34,254.07L326.73,248.66L327.13,259.48L327.52,254.07L327.92,259.48L328.7,248.66L329.1,259.48L329.49,259.48L329.89,254.07L330.28,237.84L330.68,243.25L331.07,259.48L331.47,248.66L331.86,259.48L333.05,254.07L333.44,259.48L333.83,254.07L334.23,259.48L335.02,243.25L335.41,254.07L335.81,259.48L336.2,232.43L337.39,259.48L337.78,243.25L338.57,259.48L338.96,243.25L373.3,254.07L396.97,259.48L420.65,248.66L444.32,254.07L468,254.07" style="vector-effect: none; fill: none; stroke: rgb(99, 110, 250); stroke-opacity: 1; stroke-width: 2px; opacity: 1;"/></g><g class="points"/><g class="text"/></g><g class="trace scatter trace0c408b" style="stroke-miterlimit: 2; opacity: 1;"><g class="fills"/><g class="errorbars"/><g class="lines"><path class="js-line" d="M0,202.71L24.47,216.03L48.93,296.24L73.4,146.91L97.86,172.71L126.67,255.23L127.46,255.57L132.19,256.46L132.98,256.47L140.48,255.8L141.27,255.7L153.5,254.87L153.9,254.86L174.81,253.42L175.2,253.39L184.28,253.41L184.67,253.45L194.93,255.22L195.33,255.31L207.56,257.49L211.51,257.64L220.19,256.89L221.37,256.71L239.13,254.75L239.92,254.75L265.17,254.38L265.57,254.33L282.93,252.8L283.33,252.81L295.16,253.84L296.35,253.97L306.61,254.46L308.58,254.39L329.49,253.85L329.89,253.89L338.96,253.96L373.3,167.33L396.97,175.05L420.65,296.89L444.32,202.86L468,213.63" style="vector-effect: none; fill: none; stroke: rgb(239, 85, 59); stroke-opacity: 1; stroke-width: 2px; opacity: 1;"/></g><g class="points"/><g class="text"/></g><g class="trace scatter trace03a2bb" style="stroke-miterlimit: 2; opacity: 1;"><g class="fills"/><g class="errorbars"/><g class="lines"><path class="js-line" d="M0,209.53L24.47,223.28L48.93,304L73.4,154.04L97.86,179.64L126.67,262.53L127.46,262.79L129.04,262.7L129.82,263.58L135.74,263.7L136.53,264.01L140.08,262.86L140.48,263.03L141.66,263.02L142.06,263.17L144.82,262.38L145.21,262.77L146.4,262.53L147.98,262.47L148.37,263.07L148.77,262.25L150.74,262.18L151.13,262.37L151.53,262L152.71,262.3L156.66,262.03L157.05,261.77L157.84,262.04L158.24,262.25L158.63,262.87L159.03,261.56L161.79,261.3L162.58,262.26L164.16,261.15L164.94,260.87L165.34,262.24L165.73,261.67L166.13,261.86L168.5,260.99L168.89,261.27L170.07,260.51L170.47,260.9L172.05,260.62L172.84,260.63L174.81,260.43L175.2,260.86L177.18,260.56L177.97,260.74L179.15,260.47L179.54,260.59L187.44,260.89L188.23,261.45L189.41,260.85L190.2,261.15L191.38,261.91L191.78,261.66L194.15,261.96L194.54,263.09L195.72,262.51L196.12,262.85L202.83,263.96L203.62,264.89L204.01,264.14L207.17,264.65L211.51,264.38L212.3,265.16L213.48,264.11L213.88,265.08L219.4,264.02L220.19,264.64L230.05,262.42L230.45,262.62L231.24,263.4L231.63,262.52L232.42,262.41L232.82,262.01L237.16,261.85L237.55,261.07L238.74,262.78L239.13,261.79L242.68,262.13L243.08,262.2L248.6,261.83L249.39,262.67L252.15,262.18L252.55,262.52L253.73,262.25L254.12,262.43L256.49,262.29L258.07,262.24L258.86,261.73L259.25,262.8L260.44,262.47L260.83,262.15L262.41,262.04L262.81,262.18L263.99,262.05L264.38,262.22L265.96,261.25L266.75,261.11L267.94,261.52L268.33,261.06L269.51,261.27L269.91,260.77L271.09,261.37L271.49,261.02L278.98,259.88L279.38,260.62L280.96,259.5L281.35,259.59L285.3,260.25L285.69,259.97L286.88,260.22L287.27,259.84L289.64,260.24L290.03,260.84L291.22,260.59L292.01,260.41L292.8,261.04L293.19,260.41L293.59,261.35L293.98,260.65L294.37,260.45L295.16,261.83L296.35,261.68L297.14,261.12L297.53,261.68L297.93,261.48L299.11,260.71L299.5,261.69L303.84,261.63L304.24,262.04L306.21,261.64L306.61,262.45L308.58,261.25L308.97,262.2L309.37,262.47L309.76,261.56L313.32,261.28L313.71,260.94L314.5,261.17L314.89,261.11L316.87,261.21L317.26,261.07L318.45,260.81L319.23,260.93L320.81,261.41L321.21,260.84L321.6,260.06L322.39,261.41L323.58,260.69L323.97,261.07L325.15,260.38L325.55,260.73L328.31,261.34L328.7,260.93L329.49,261.67L329.89,260.83L330.68,261.24L331.07,261L331.86,261.74L332.65,261.53L333.83,261.14L334.23,260.57L335.41,261.79L335.81,261.61L338.96,261.34L373.3,174.64L396.97,182.44L420.65,303.61L444.32,209.78L468,220.66" style="vector-effect: none; fill: none; stroke: rgb(0, 204, 150); stroke-opacity: 1; stroke-width: 2px; opacity: 1;"/></g><g class="points"/><g class="text"/></g><g class="trace scatter trace74e209" style="stroke-miterlimit: 2; opacity: 1;"><g class="fills"/><g class="errorbars"/><g class="lines"><path class="js-line" d="M0,195.51L24.47,208.75L48.93,288.41L73.4,139.48L97.86,165.81L126.67,248.03L127.46,248.36L131.4,249.06L132.19,249.52L138.9,249.02L139.3,249.12L140.08,248.51L140.48,249.11L142.45,248L142.85,248.73L145.61,248.07L146.4,248.2L150.34,247.07L150.74,248.22L151.13,247.29L151.53,247.51L152.71,247.68L157.05,247.49L157.45,248L157.84,246.94L158.24,247.61L158.63,247.26L160.21,248.19L160.6,246.8L161.79,247.01L162.58,247L164.94,246.93L165.34,247.49L166.92,246.56L167.31,247.05L172.84,246.35L173.23,246.89L175.2,246.24L175.6,246.27L176.39,246.34L176.78,245.76L177.18,246.2L177.97,245.45L178.36,246.08L179.15,245.81L180.73,246.27L181.52,245.53L183.1,246.45L183.49,246.46L184.28,245.62L184.67,246.27L185.07,246.3L187.44,246.13L188.23,246.73L189.02,246.53L189.41,246.79L190.99,247.07L191.38,246.94L191.78,247.73L192.17,247L192.57,247.09L194.54,248.27L194.93,247.85L195.72,248.12L196.12,248.41L196.51,247.97L196.91,249.03L198.49,248.47L199.67,248.85L201.64,250L202.83,249.18L204.01,249.73L207.17,250.17L207.56,250.26L211.51,250.36L214.27,250.21L215.06,250.41L216.64,249.72L218.22,250.43L220.19,249.51L221.37,250.08L221.77,248.91L222.16,249.76L222.95,248.94L223.35,250.02L223.74,249.02L224.13,249.02L225.71,249.07L226.11,248.23L226.9,248.69L227.29,248.55L228.48,248.45L229.26,247.93L230.05,247.52L230.45,248.22L232.82,247.75L234,248.2L234.39,247.33L235.58,247.28L236.37,248.12L236.76,247.38L237.95,247.4L238.34,247.64L238.74,247.28L239.13,247.78L239.92,247.41L240.71,247.88L241.1,247.22L243.08,247.53L244.65,247.98L245.05,247.3L245.84,247.47L246.23,247.97L247.42,248.05L247.81,247.61L248.6,248.18L251.76,247.82L252.15,248.22L252.94,247.27L253.34,247.74L253.73,247.91L254.12,247.25L254.91,248.08L256.1,248.49L256.49,247.71L259.65,247.75L260.44,246.99L260.83,247.77L261.23,247.27L261.62,247.46L263.6,246.75L263.99,247.71L265.17,246.62L265.57,246.81L266.75,247.06L267.15,245.77L267.94,247.49L268.33,246.7L271.88,246.19L272.28,245.85L275.04,246.04L275.83,245.47L277.41,246.19L277.8,245.53L280.96,245.7L281.35,245.46L283.72,245.49L284.11,246.11L285.3,245.9L285.69,245.29L286.09,246.39L286.48,246.02L286.88,246.13L287.27,245.76L288.06,246.19L290.03,246.1L290.43,246.37L292.01,246.13L292.4,246.6L294.37,246.13L294.77,246.6L299.11,247.04L299.5,247.33L301.08,247.05L301.48,247.3L304.24,246.9L305.03,247.3L305.82,247.11L306.21,247.3L308.97,247.05L309.37,246.67L309.76,247.36L310.95,246.99L313.32,246.96L313.71,246.64L314.5,246.53L314.89,246.63L317.66,245.9L318.05,246.57L319.63,245.84L320.42,246.2L321.6,246.47L322.39,246.92L323.97,245.74L324.36,246.06L324.76,246.88L325.15,246.21L325.55,246.67L326.73,246.25L327.13,246.1L329.89,246.88L330.28,246.74L333.44,246.77L333.83,246.43L335.41,247.03L335.81,246.66L337.39,247.44L337.78,247.05L338.96,246.55L373.3,160.42L396.97,167.75L420.65,290.01L444.32,195.16L468,206.45" style="vector-effect: none; fill: none; stroke: rgb(171, 99, 250); stroke-opacity: 1; stroke-width: 2px; opacity: 1;"/></g><g class="points"/><g class="text"/></g><g class="trace scatter traceb0e02b" style="stroke-miterlimit: 2; opacity: 1;"><g class="fills"/><g class="errorbars"/><g class="lines"><path class="js-line" d="M0,213.53L24.47,221.44L48.93,228.13L73.4,152.32L97.86,183.54L126.67,260.64L127.46,252.57L129.04,261.46L129.82,261.63L131.4,261.83L132.19,67.71L132.98,262.48L133.38,261.88L133.77,262.5L134.56,261.84L135.74,261.75L137.32,262.78L138.51,261.45L138.9,261.4L139.3,263.01L140.08,263.11L140.48,261.21L141.66,261.07L142.06,263.35L142.85,260.93L143.64,263.52L144.03,260.81L144.42,263.6L145.21,260.7L145.61,263.7L149.55,263.95L150.34,258.57L150.74,253.18L151.13,264.01L151.53,260.34L152.71,264.07L153.5,264.09L153.9,253.28L156.26,264.17L156.66,264.18L157.05,247.96L157.45,260.16L157.84,260.14L158.24,264.24L158.63,258.84L159.03,260.1L159.81,253.49L160.21,264.33L160.6,253.53L161.39,264.4L161.79,253.6L163.37,264.53L163.76,259.15L164.16,259.78L164.94,253.83L166.13,264.75L166.92,264.83L167.31,264.86L167.71,259.47L168.89,259.35L169.68,264.69L170.07,264.65L170.47,259.76L171.26,259.12L172.05,259.05L173.23,258.95L173.63,260.04L174.02,260.07L174.41,264.26L174.81,258.83L175.2,27.5L175.99,264.16L176.39,260.23L176.78,260.25L177.18,264.1L178.36,254.89L179.15,260.32L179.54,254.91L179.94,260.32L180.33,264.05L180.73,258.64L181.52,254.88L181.91,264.09L182.7,258.71L183.1,264.15L184.28,249.31L184.67,264.27L185.86,243.74L186.65,259.88L187.04,259.83L187.44,264.6L188.23,259.3L188.62,264.78L189.41,264.87L190.2,259.64L190.59,259.72L190.99,264.58L191.38,264.5L191.78,259.95L192.17,260.03L192.57,264.25L193.36,264.09L193.75,260.37L194.15,258.5L194.54,260.54L194.93,263.74L195.33,260.72L195.72,252.74L196.12,260.9L197.7,261.26L198.49,262.94L199.67,261.68L201.64,262.08L207.56,262.9L211.51,263.05L212.3,261.33L212.69,263.03L215.06,262.9L216.64,261.61L221.77,262.31L222.16,256.96L222.95,262.5L223.35,261.81L223.74,261.74L224.13,262.69L224.92,261.55L226.11,261.36L226.5,263.07L226.9,261.24L227.29,263.19L228.08,263.31L228.48,257.96L229.66,260.84L230.05,258.17L230.84,260.69L231.24,260.65L232.03,263.81L232.42,260.52L232.82,263.89L234,258.58L234.39,258.61L235.58,260.28L235.97,264.11L236.37,260.24L236.76,264.15L237.16,260.2L237.95,260.18L238.34,253.37L239.13,264.21L239.92,260.16L240.71,260.16L241.1,258.79L241.5,260.17L241.89,253.37L243.08,260.21L244.65,260.26L245.05,264.1L245.84,264.07L249.39,263.93L250.57,258.48L251.36,260.5L251.76,260.5L252.55,260.52L252.94,258.44L253.34,258.43L253.73,260.53L254.12,253.02L254.91,258.44L255.7,263.86L256.1,260.5L258.07,253.12L258.47,263.96L258.86,260.38L259.25,264.01L260.44,264.09L260.83,258.71L261.23,264.16L261.62,253.37L262.81,264.31L263.2,260.02L263.6,264.39L263.99,259.93L264.38,264.48L264.78,253.71L265.57,259.22L265.96,259.69L266.75,86.23L267.15,259.42L267.54,264.88L267.94,264.85L268.33,259.38L269.12,259.68L269.51,264.63L269.91,259.79L270.3,264.53L270.7,254.48L271.09,259.02L271.49,258.96L271.88,254.63L272.28,260.09L272.67,260.14L273.07,264.18L274.25,264.05L274.64,254.95L275.83,263.89L276.22,258.45L276.62,244.31L277.01,263.8L277.41,255.19L277.8,260.63L278.2,263.72L278.59,263.7L278.98,258.27L279.77,263.65L280.17,260.73L280.56,255.33L280.96,263.62L281.35,255.34L281.75,260.75L282.93,258.21L283.72,263.64L284.11,263.65L284.51,258.26L285.3,258.3L285.69,263.73L286.09,260.62L286.48,249.77L287.27,263.84L288.06,255.06L288.85,260.4L289.24,258.6L289.64,260.32L290.43,264.13L290.82,260.2L291.22,260.15L292.01,258.89L292.4,264.35L292.8,258.98L293.19,249.11L293.59,254.47L293.98,259.12L295.16,259.25L296.35,264.79L297.14,264.87L297.53,259.5L298.72,259.61L299.11,264.73L299.5,264.7L299.9,259.26L300.29,259.73L300.69,253.79L301.87,264.55L302.27,264.53L303.84,248.25L304.24,259.07L305.42,264.48L305.82,259.89L306.21,259.08L306.61,264.49L308.58,264.56L308.97,259.78L309.37,259.76L309.76,264.63L310.95,259.66L311.74,264.76L312.92,248.62L313.32,259.48L313.71,254.1L314.1,259.42L314.89,259.61L315.68,264.7L316.08,259.25L316.87,259.76L317.26,264.58L317.66,259.82L318.05,264.52L318.45,259.09L319.23,259.92L319.63,264.43L320.42,259.97L320.81,264.39L321.6,258.96L322.39,260.01L322.79,254.6L323.18,258.94L323.58,258.95L324.76,258.97L325.15,259.97L325.94,259.02L326.34,264.45L327.13,259.09L327.52,264.52L327.92,259.14L328.31,264.58L329.49,259.26L329.89,264.71L330.28,248.81L330.68,254.18L331.07,259.4L331.86,259.46L332.65,264.84L333.05,264.82L333.44,259.58L333.83,264.77L334.23,259.61L335.02,253.91L335.41,264.73L335.81,259.64L336.2,243.09L336.99,264.77L337.39,259.57L337.78,254.01L338.57,259.44L338.96,254.18L373.3,178.15L396.97,180.46L420.65,216.66L444.32,213.68L468,224.45" style="vector-effect: none; fill: none; stroke: rgb(255, 161, 90); stroke-opacity: 1; stroke-width: 2px; opacity: 1;"/></g><g class="points"/><g class="text"/></g><g class="trace scatter tracef7a8a6" style="stroke-miterlimit: 2; opacity: 1;"><g class="fills"/><g class="errorbars"/><g class="lines"><path class="js-line" d="M0,250.86L48.93,249.3L73.4,250.33L97.86,251.05L126.27,250.88L127.46,250.46L128.25,250.72L128.64,250.26L129.04,250.98L130.61,250.25L131.4,250.59L132.98,250.58L133.38,250.45L134.17,250.61L134.56,250.37L135.74,250.67L136.53,249.53L138.9,250.64L139.3,250.63L140.48,250.97L141.27,250.96L142.45,249.83L142.85,251.01L145.21,250.09L145.61,250.59L150.34,250.35L150.74,250.94L151.13,249.82L151.53,250.39L152.71,250.27L156.66,250.59L157.05,250.61L157.45,251.4L157.84,249.79L158.24,250.25L158.63,249.28L159.03,250.79L159.81,250.71L160.21,250.96L160.6,249.95L161.79,250.6L162.58,249.64L164.16,250.79L164.94,250.95L166.13,249.57L166.92,250.06L167.31,250.92L167.71,250.44L168.5,250.17L170.07,250.86L170.47,250.29L172.05,250.76L172.84,250.61L174.02,251.26L174.41,250.52L175.6,250.38L175.99,251.07L176.78,250.59L177.18,250.53L177.97,249.6L178.36,250.66L180.33,250.39L180.73,250.74L181.52,249.86L181.91,250.64L183.49,251.07L183.89,250.32L184.28,249.65L184.67,250.57L187.44,250.14L188.23,250.18L190.2,251.01L190.59,249.95L191.78,250.96L192.17,250.1L192.96,250.13L193.36,250.51L195.33,250.4L195.72,250.5L196.51,249.95L196.91,251.31L197.3,250.28L197.7,250.72L198.49,249.78L201.64,250.86L202.83,250.11L207.56,250.48L211.51,250.87L212.3,249.93L212.69,250.56L213.48,250.6L214.27,250.09L215.06,250.9L216.64,250.31L218.22,251.2L220.19,249.76L221.37,250.59L221.77,250.06L222.16,250.84L222.95,250.21L223.35,250.97L224.13,250.26L224.92,250.83L227.29,250.23L228.08,251.06L230.05,249.99L230.45,250.49L231.24,249.41L231.63,250.21L232.82,250.64L234,250.92L234.39,250.5L235.58,250.34L236.37,250.77L236.76,249.97L237.16,250.2L237.55,251.36L238.74,249.39L239.13,250.88L241.1,250.26L241.5,250.08L245.05,250.26L245.84,250.21L246.23,250.9L247.42,250.81L247.81,250.46L248.6,251.24L249.39,250.34L250.57,250.55L250.97,250.09L251.36,250.72L251.76,250.34L252.15,250.93L252.55,250.08L253.73,250.55L254.12,249.71L254.91,250.75L255.31,250.39L255.7,250.5L256.1,250.95L256.49,250.31L258.07,250.55L258.47,250.48L258.86,251.41L259.25,249.95L259.65,250.34L260.44,249.41L260.83,250.51L261.23,250.17L261.62,250.49L263.6,250.04L263.99,250.55L264.38,249.57L264.78,249.79L265.17,249.83L266.75,250.84L267.15,249.01L267.94,250.85L268.33,250.52L268.73,250.41L269.12,249.58L269.51,249.94L269.91,250.58L272.67,250.09L273.07,250.33L276.62,250.35L277.01,249.96L277.41,251.05L277.8,250.29L278.2,250.53L279.38,249.68L279.77,250.83L280.17,250L280.56,251.32L283.33,250.38L283.72,250.35L284.51,251.06L285.3,250.55L285.69,250.2L286.09,251.01L287.27,250.81L288.06,251.19L290.03,250.15L290.43,250.82L292.01,250.61L292.4,250.72L293.59,249.91L293.98,250.8L295.16,249.65L296.35,250.07L299.11,251.21L299.5,250.52L299.9,250.51L300.29,249.73L302.27,250.35L303.84,250.35L304.24,249.74L305.03,250.3L306.21,250.54L306.61,249.77L308.58,251.21L308.97,249.74L309.37,249.09L309.76,250.69L311.74,250.61L312.92,250.56L314.1,251.19L314.5,250.25L314.89,250.41L315.68,249.83L318.45,250.36L319.23,250.09L319.63,249.63L320.42,250.19L320.81,249.6L321.21,250.27L321.6,251.3L322.79,250.3L323.18,250.8L323.97,249.56L324.36,250.34L324.76,251.11L325.15,250.71L325.55,250.84L326.73,250.05L327.13,250.12L329.49,249.94L329.89,250.94L330.28,250.18L330.68,250.41L331.07,250.56L331.47,249.98L331.86,250.29L332.65,249.84L334.62,250.57L335.02,249.92L337.78,250.78L338.57,250.42L338.96,250.1L373.3,250.66L396.97,250.21L420.65,251.29L444.32,250.26L468,250.68" style="vector-effect: none; fill: none; stroke: rgb(25, 211, 243); stroke-opacity: 1; stroke-width: 2px; opacity: 1;"/></g><g class="points"/><g class="text"/></g><g class="trace scatter traced0c587" style="stroke-miterlimit: 2; opacity: 1;"><g class="fills"/><g class="errorbars"/><g class="lines"><path class="js-line" d="M0,243.85L24.47,243.08L48.93,241.51L97.86,244.13L126.27,243.87L127.46,243.25L128.25,243.64L128.64,242.94L129.04,244.03L130.61,242.93L131.4,243.44L132.19,243.99L132.98,243.43L134.56,243.1L135.74,243.55L136.53,241.85L137.32,242.86L140.08,243.36L140.48,244.01L141.27,243.99L141.66,242.94L142.45,242.3L142.85,244.07L144.42,242.79L144.82,243.26L145.21,242.68L145.61,243.44L147.98,242.83L148.37,242.34L150.74,243.96L151.13,242.28L151.53,243.15L152.71,242.97L155.08,242.83L155.47,243.36L157.05,243.46L157.45,244.66L158.63,241.48L159.03,243.74L160.21,244L160.6,242.48L161,243.53L161.39,242.79L161.79,243.45L162.58,242.01L163.37,243.27L164.94,243.98L165.34,242.76L165.73,242.96L166.13,241.92L167.31,243.94L167.71,243.21L168.89,243.19L169.68,244.25L170.47,242.99L170.86,243.42L171.26,243.84L172.84,243.48L173.23,244.5L174.02,244.44L174.41,243.33L175.6,243.13L175.99,244.17L176.39,243.15L176.78,243.44L177.18,243.35L177.97,241.95L178.36,243.54L179.54,242.77L179.94,243.26L180.73,243.67L181.52,242.35L182.31,243.62L182.7,242.9L183.49,244.17L183.89,243.03L184.28,242.03L184.67,243.42L186.65,243.01L187.04,243.16L188.23,242.82L188.62,243.31L190.2,244.06L190.59,242.48L191.78,244L192.17,242.71L192.57,242.26L192.96,242.76L193.36,243.32L194.15,243.71L194.54,242.66L194.93,242.45L195.33,243.16L196.12,243.23L196.51,242.48L196.91,244.51L197.3,242.98L197.7,243.64L198.49,242.22L199.67,243.05L201.64,243.84L202.83,242.72L204.01,243.28L207.17,243.17L211.51,243.86L212.3,242.45L213.48,243.45L213.88,242.99L214.27,242.69L215.06,243.91L216.64,243.03L218.22,244.35L219.4,243.73L220.19,242.2L221.37,243.44L221.77,242.64L222.16,243.81L222.95,242.87L223.35,244.01L223.74,242.9L224.13,242.94L225.71,243.7L226.11,242.72L228.08,244.14L228.48,243.65L229.66,242.07L230.05,242.55L230.45,243.28L231.24,241.67L231.63,242.87L232.82,243.51L234,243.93L234.39,243.31L235.58,243.07L236.37,243.71L236.76,242.5L237.16,242.86L237.55,244.59L238.74,241.64L239.13,243.87L239.92,242.95L240.71,243.31L242.29,242.79L242.68,242.7L244.65,243.94L245.05,242.94L245.84,242.87L246.23,243.9L247.81,243.25L248.6,244.41L249.39,243.07L250.57,243.38L250.97,242.69L251.36,243.64L251.76,243.06L252.15,243.95L252.94,242.59L253.34,243.11L253.73,243.38L254.12,242.12L254.91,243.69L255.31,243.13L255.7,243.31L256.1,243.97L256.49,243.01L258.47,243.28L258.86,244.67L259.25,242.48L259.65,243.07L260.44,241.68L260.83,243.33L261.23,242.8L261.62,243.29L263.6,242.62L263.99,243.38L264.38,241.92L264.78,242.24L265.17,242.29L266.75,243.81L267.15,241.07L267.94,243.84L268.33,243.34L268.73,243.18L269.12,241.93L269.51,242.46L269.91,243.43L272.67,242.68L273.07,243.05L274.64,243.05L275.04,242.73L276.62,243.08L277.01,242.49L277.41,244.13L277.8,242.99L278.2,243.35L279.38,242.07L279.77,243.8L280.17,242.55L280.56,244.53L282.93,242.68L283.33,243.13L283.72,243.08L284.11,244.1L284.51,244.15L285.3,243.37L285.69,242.86L286.09,244.07L286.48,243.48L286.88,243.76L287.27,243.78L288.06,244.34L288.85,243.34L290.03,242.77L290.43,243.79L291.22,243.02L292.01,243.47L293.19,243.29L293.59,242.42L293.98,243.75L294.37,243.42L294.77,242.72L295.16,242.03L296.35,242.67L297.53,242.82L297.93,242.56L299.11,244.37L299.5,243.34L299.9,243.33L300.29,242.15L301.87,242.94L302.27,243.08L303.84,243.08L304.24,242.17L306.21,243.37L306.61,242.22L308.58,244.37L308.97,242.16L309.37,241.19L309.76,243.59L310.95,242.83L311.74,243.47L313.71,243.45L314.1,244.34L314.5,242.93L314.89,243.17L315.68,242.31L317.66,242.56L318.05,243.96L319.63,242L320.42,242.85L320.81,241.96L321.21,242.96L321.6,244.5L322.39,243.15L322.79,243.01L323.18,243.76L323.97,241.89L324.36,243.07L324.76,244.22L325.15,243.63L325.55,243.81L326.73,242.64L327.13,242.74L328.7,242.62L329.1,243.38L329.49,242.47L329.89,243.97L330.28,242.83L330.68,243.17L331.07,243.4L331.47,242.52L331.86,242.99L332.65,242.32L333.83,242.82L334.23,244.18L335.81,242.47L336.2,242.91L337.39,244.08L337.78,243.73L338.96,242.71L373.3,243.55L396.97,242.86L420.65,244.5L444.32,242.95L468,243.57" style="vector-effect: none; fill: none; stroke: rgb(255, 102, 146); stroke-opacity: 1; stroke-width: 2px; opacity: 1;"/></g><g class="points"/><g class="text"/></g><g class="trace scatter trace41ef83" style="stroke-miterlimit: 2; opacity: 1;"><g class="fills"/><g class="errorbars"/><g class="lines"><path class="js-line" d="M0,241.05L24.47,240.17L48.93,238.39L97.86,241.37L126.27,241.07L126.67,240.24L127.46,240.36L128.25,240.81L128.64,240.02L129.04,241.25L129.82,240.31L130.61,240L131.4,240.58L132.19,241.21L132.98,240.57L133.38,240.35L133.77,241.02L134.56,240.2L135.74,240.71L136.53,238.78L137.32,239.92L140.08,240.49L140.48,241.23L141.27,241.2L141.66,240.02L142.45,239.28L142.85,241.3L144.42,239.85L144.82,240.37L145.21,239.72L145.61,240.58L147.98,239.89L148.37,239.33L150.74,241.17L151.13,239.26L151.53,240.25L152.71,240.04L155.08,239.89L155.47,240.49L157.05,240.61L157.45,241.96L158.63,238.36L159.03,240.92L160.21,241.22L160.6,239.49L161,240.68L161.39,239.84L161.79,240.59L162.58,238.96L163.37,240.38L164.94,241.19L165.34,239.81L165.73,240.04L166.13,238.85L167.31,241.15L167.71,240.32L168.89,240.29L169.68,241.5L170.47,240.07L170.86,240.56L171.26,241.03L172.84,240.62L173.23,241.78L174.02,241.72L174.41,240.45L175.6,240.23L175.99,241.4L176.39,240.25L176.78,240.58L177.18,240.47L177.97,238.9L178.36,240.7L179.54,239.82L179.94,240.38L180.73,240.84L181.52,239.34L182.31,240.78L182.7,239.97L183.49,241.4L183.89,240.12L184.28,238.98L184.67,240.55L185.07,240.31L185.86,240.72L187.44,239.81L188.23,239.88L189.41,240.99L190.2,241.29L190.59,239.5L190.99,240.55L191.38,239.44L191.78,241.21L192.17,239.75L192.57,239.24L194.15,240.88L194.54,239.69L194.93,239.46L195.33,240.27L196.12,240.35L196.51,239.49L196.91,241.8L197.3,240.06L197.7,240.81L198.49,239.2L199.67,240.14L201.64,241.04L202.83,239.76L203.62,239.65L204.01,240.39L207.56,240.4L211.51,241.06L212.3,239.46L212.69,240.54L213.88,240.07L214.27,239.73L215.06,241.11L216.64,240.11L218.22,241.61L219.4,240.91L220.19,239.17L221.37,240.58L221.77,239.68L222.16,241L222.95,239.93L223.35,241.23L224.13,240.01L224.92,240.99L225.71,240.87L226.11,239.76L226.9,240.19L227.29,239.97L228.08,241.37L228.48,240.82L229.26,239.88L229.66,239.02L230.05,239.57L230.45,240.4L231.24,238.57L231.63,239.94L232.42,240.33L232.82,240.66L234,241.14L234.39,240.43L235.97,240.79L236.37,240.89L236.76,239.52L237.16,239.92L237.55,241.89L238.74,238.54L239.13,241.07L239.92,240.03L240.71,240.43L241.89,239.79L242.29,239.84L243.08,239.95L244.65,241.14L245.84,239.94L246.23,241.1L247.81,240.37L248.6,241.68L249.39,240.16L250.57,240.51L250.97,239.73L251.36,240.81L251.76,240.15L252.15,241.16L252.94,239.62L253.34,240.21L253.73,240.51L254.12,239.09L254.91,240.86L255.31,240.23L255.7,240.43L256.1,241.18L256.49,240.1L258.47,240.4L258.86,241.98L259.25,239.49L259.65,240.16L260.44,238.58L260.83,240.45L261.23,239.86L261.62,240.41L263.6,239.65L263.99,240.51L264.38,238.85L264.78,239.22L265.17,239.28L266.75,241L267.15,237.89L267.94,241.03L268.33,240.47L268.73,240.28L269.12,238.87L269.51,239.47L269.91,240.57L271.88,239.74L272.28,240.02L273.07,240.13L273.85,240.27L274.64,240.14L275.04,239.78L276.62,240.17L277.01,239.51L277.41,241.36L277.8,240.07L278.2,240.48L279.38,239.03L279.77,240.98L280.17,239.57L280.56,241.82L282.93,239.72L283.33,240.22L283.72,240.17L284.11,241.33L284.51,241.38L285.3,240.5L285.69,239.92L286.09,241.29L286.48,240.62L286.88,240.94L287.27,240.96L288.06,241.6L288.85,240.47L290.03,239.82L290.43,240.97L291.22,240.1L292.01,240.61L292.4,240.81L292.8,240.17L293.19,240.41L293.59,239.42L293.98,240.93L294.37,240.56L294.77,239.77L295.16,238.98L296.35,239.7L297.53,239.87L297.93,239.58L299.11,241.64L299.5,240.46L299.9,240.45L300.29,239.11L301.87,240.01L302.27,240.17L303.84,240.17L304.24,239.14L306.21,240.5L306.61,239.19L308.58,241.63L308.97,239.13L309.37,238.03L309.76,240.75L310.95,239.89L311.74,240.61L313.71,240.59L314.1,241.6L314.5,240L314.89,240.28L315.68,239.3L317.26,239.5L317.66,239.58L318.05,241.17L318.45,240.18L319.23,239.73L319.63,238.95L320.42,239.91L320.81,238.9L321.21,240.04L321.6,241.79L322.39,240.25L322.79,240.09L323.18,240.94L323.97,238.83L324.36,240.16L324.76,241.46L325.15,240.79L325.55,241L326.73,239.67L327.13,239.78L328.7,239.65L329.1,240.51L329.49,239.48L329.89,241.18L330.28,239.89L330.68,240.28L331.07,240.54L331.47,239.54L331.86,240.08L332.65,239.31L333.83,239.87L334.23,241.42L335.81,239.48L336.2,239.98L337.39,241.3L337.78,240.91L338.96,239.75L373.3,240.7L396.97,239.93L420.65,241.78L444.32,240.03L468,240.73" style="vector-effect: none; fill: none; stroke: rgb(182, 232, 128); stroke-opacity: 1; stroke-width: 2px; opacity: 1;"/></g><g class="points"/><g class="text"/></g></g></g><g class="overplot"/><path class="xlines-above crisp" d="M0,0" style="fill: none;"/><path class="ylines-above crisp" d="M0,0" style="fill: none;"/><g class="overlines-above"/><g class="xaxislayer-above"><g class="xtick"><text text-anchor="middle" x="0" y="433" transform="translate(135.24,0)" style="font-family: 'Open Sans', verdana, arial, sans-serif; font-size: 12px; fill: rgb(42, 63, 95); fill-opacity: 1; white-space: pre; opacity: 1;"><tspan class="line" dy="0em" x="0" y="433">06:00</tspan><tspan class="line" dy="1.3em" x="0" y="433">Jun 20, 2023</tspan></text></g><g class="xtick"><text text-anchor="middle" x="0" y="433" style="font-family: 'Open Sans', verdana, arial, sans-serif; font-size: 12px; fill: rgb(42, 63, 95); fill-opacity: 1; white-space: pre; opacity: 1;" transform="translate(206.26999999999998,0)">09:00</text></g><g class="xtick"><text text-anchor="middle" x="0" y="433" style="font-family: 'Open Sans', verdana, arial, sans-serif; font-size: 12px; fill: rgb(42, 63, 95); fill-opacity: 1; white-space: pre; opacity: 1;" transform="translate(277.3,0)">12:00</text></g><g class="xtick"><text text-anchor="middle" x="0" y="433" style="font-family: 'Open Sans', verdana, arial, sans-serif; font-size: 12px; fill: rgb(42, 63, 95); fill-opacity: 1; white-space: pre; opacity: 1;" transform="translate(348.33,0)">15:00</text></g><g class="xtick"><text text-anchor="middle" x="0" y="433" style="font-family: 'Open Sans', verdana, arial, sans-serif; font-size: 12px; fill: rgb(42, 63, 95); fill-opacity: 1; white-space: pre; opacity: 1;" transform="translate(419.36,0)">18:00</text></g><g class="xtick"><text text-anchor="middle" x="0" y="433" style="font-family: 'Open Sans', verdana, arial, sans-serif; font-size: 12px; fill: rgb(42, 63, 95); fill-opacity: 1; white-space: pre; opacity: 1;" transform="translate(490.39,0)">21:00</text></g></g><g class="yaxislayer-above"><g class="ytick"><text text-anchor="end" x="79" y="4.199999999999999" transform="translate(0,419)" style="font-family: 'Open Sans', verdana, arial, sans-serif; font-size: 12px; fill: rgb(42, 63, 95); fill-opacity: 1; white-space: pre; opacity: 1;">−10</text></g><g class="ytick"><text text-anchor="end" x="79" y="4.199999999999999" style="font-family: 'Open Sans', verdana, arial, sans-serif; font-size: 12px; fill: rgb(42, 63, 95); fill-opacity: 1; white-space: pre; opacity: 1;" transform="translate(0,364.89)">0</text></g><g class="ytick"><text text-anchor="end" x="79" y="4.199999999999999" style="font-family: 'Open Sans', verdana, arial, sans-serif; font-size: 12px; fill: rgb(42, 63, 95); fill-opacity: 1; white-space: pre; opacity: 1;" transform="translate(0,310.78)">10</text></g><g class="ytick"><text text-anchor="end" x="79" y="4.199999999999999" style="font-family: 'Open Sans', verdana, arial, sans-serif; font-size: 12px; fill: rgb(42, 63, 95); fill-opacity: 1; white-space: pre; opacity: 1;" transform="translate(0,256.68)">20</text></g><g class="ytick"><text text-anchor="end" x="79" y="4.199999999999999" style="font-family: 'Open Sans', verdana, arial, sans-serif; font-size: 12px; fill: rgb(42, 63, 95); fill-opacity: 1; white-space: pre; opacity: 1;" transform="translate(0,202.57)">30</text></g><g class="ytick"><text text-anchor="end" x="79" y="4.199999999999999" style="font-family: 'Open Sans', verdana, arial, sans-serif; font-size: 12px; fill: rgb(42, 63, 95); fill-opacity: 1; white-space: pre; opacity: 1;" transform="translate(0,148.46)">40</text></g></g><g class="overaxes-above"/></g></g><g class="polarlayer"/><g class="smithlayer"/><g class="ternarylayer"/><g class="geolayer"/><g class="funnelarealayer"/><g class="pielayer"/><g class="iciclelayer"/><g class="treemaplayer"/><g class="sunburstlayer"/><g class="glimages"/><defs id="topdefs-8e0bc7"><g class="clips"/><clipPath id="legend8e0bc7"><rect width="131" height="181" x="0" y="0"/></clipPath></defs><g class="layer-above"><g class="imagelayer"/><g class="shapelayer"/></g><g class="infolayer"><g class="legend" pointer-events="all" transform="translate(557.36,100)"><rect class="bg" shape-rendering="crispEdges" width="131" height="181" x="0" y="0" style="stroke: rgb(68, 68, 68); stroke-opacity: 1; fill: rgb(255, 255, 255); fill-opacity: 1; stroke-width: 0px;"/><g class="scrollbox" transform="" clip-path="url(#legend8e0bc7)"><text class="legendtitletext" text-anchor="start" x="2" y="18.2" style="font-family: 'Open Sans', verdana, arial, sans-serif; font-size: 14px; fill: rgb(42, 63, 95); fill-opacity: 1; white-space: pre;">variable</text><g class="groups" transform=""><g class="traces" transform="translate(0,32.7)" style="opacity: 1;"><text class="legendtext" text-anchor="start" x="40" y="4.680000000000001" style="font-family: 'Open Sans', verdana, arial, sans-serif; font-size: 12px; fill: rgb(42, 63, 95); fill-opacity: 1; white-space: pre;">y</text><g class="layers" style="opacity: 1;"><g class="legendfill"/><g class="legendlines"><path class="js-line" d="M5,0h30" style="fill: none; stroke: rgb(99, 110, 250); stroke-opacity: 1; stroke-width: 2px;"/></g><g class="legendsymbols"><g class="legendpoints"/></g></g><rect class="legendtoggle" x="0" y="-9.5" width="125.734375" height="19" style="fill: rgb(0, 0, 0); fill-opacity: 0;"/></g></g><g class="groups" transform=""><g class="traces" transform="translate(0,51.7)" style="opacity: 1;"><text class="legendtext" text-anchor="start" x="40" y="4.680000000000001" style="font-family: 'Open Sans', verdana, arial, sans-serif; font-size: 12px; fill: rgb(42, 63, 95); fill-opacity: 1; white-space: pre;">yhat</text><g class="layers" style="opacity: 1;"><g class="legendfill"/><g class="legendlines"><path class="js-line" d="M5,0h30" style="fill: none; stroke: rgb(239, 85, 59); stroke-opacity: 1; stroke-width: 2px;"/></g><g class="legendsymbols"><g class="legendpoints"/></g></g><rect class="legendtoggle" x="0" y="-9.5" width="125.734375" height="19" style="fill: rgb(0, 0, 0); fill-opacity: 0;"/></g></g><g class="groups" transform=""><g class="traces" transform="translate(0,70.7)" style="opacity: 1;"><text class="legendtext" text-anchor="start" x="40" y="4.680000000000001" style="font-family: 'Open Sans', verdana, arial, sans-serif; font-size: 12px; fill: rgb(42, 63, 95); fill-opacity: 1; white-space: pre;">yhat_lower</text><g class="layers" style="opacity: 1;"><g class="legendfill"/><g class="legendlines"><path class="js-line" d="M5,0h30" style="fill: none; stroke: rgb(0, 204, 150); stroke-opacity: 1; stroke-width: 2px;"/></g><g class="legendsymbols"><g class="legendpoints"/></g></g><rect class="legendtoggle" x="0" y="-9.5" width="125.734375" height="19" style="fill: rgb(0, 0, 0); fill-opacity: 0;"/></g></g><g class="groups" transform=""><g class="traces" transform="translate(0,89.7)" style="opacity: 1;"><text class="legendtext" text-anchor="start" x="40" y="4.680000000000001" style="font-family: 'Open Sans', verdana, arial, sans-serif; font-size: 12px; fill: rgb(42, 63, 95); fill-opacity: 1; white-space: pre;">yhat_upper</text><g class="layers" style="opacity: 1;"><g class="legendfill"/><g class="legendlines"><path class="js-line" d="M5,0h30" style="fill: none; stroke: rgb(171, 99, 250); stroke-opacity: 1; stroke-width: 2px;"/></g><g class="legendsymbols"><g class="legendpoints"/></g></g><rect class="legendtoggle" x="0" y="-9.5" width="125.734375" height="19" style="fill: rgb(0, 0, 0); fill-opacity: 0;"/></g></g><g class="groups" transform=""><g class="traces" transform="translate(0,108.7)" style="opacity: 1;"><text class="legendtext" text-anchor="start" x="40" y="4.680000000000001" style="font-family: 'Open Sans', verdana, arial, sans-serif; font-size: 12px; fill: rgb(42, 63, 95); fill-opacity: 1; white-space: pre;">error</text><g class="layers" style="opacity: 1;"><g class="legendfill"/><g class="legendlines"><path class="js-line" d="M5,0h30" style="fill: none; stroke: rgb(255, 161, 90); stroke-opacity: 1; stroke-width: 2px;"/></g><g class="legendsymbols"><g class="legendpoints"/></g></g><rect class="legendtoggle" x="0" y="-9.5" width="125.734375" height="19" style="fill: rgb(0, 0, 0); fill-opacity: 0;"/></g></g><g class="groups" transform=""><g class="traces" transform="translate(0,127.7)" style="opacity: 1;"><text class="legendtext" text-anchor="start" x="40" y="4.680000000000001" style="font-family: 'Open Sans', verdana, arial, sans-serif; font-size: 12px; fill: rgb(42, 63, 95); fill-opacity: 1; white-space: pre;">uncertainty</text><g class="layers" style="opacity: 1;"><g class="legendfill"/><g class="legendlines"><path class="js-line" d="M5,0h30" style="fill: none; stroke: rgb(25, 211, 243); stroke-opacity: 1; stroke-width: 2px;"/></g><g class="legendsymbols"><g class="legendpoints"/></g></g><rect class="legendtoggle" x="0" y="-9.5" width="125.734375" height="19" style="fill: rgb(0, 0, 0); fill-opacity: 0;"/></g></g><g class="groups" transform=""><g class="traces" transform="translate(0,146.7)" style="opacity: 1;"><text class="legendtext" text-anchor="start" x="40" y="4.680000000000001" style="font-family: 'Open Sans', verdana, arial, sans-serif; font-size: 12px; fill: rgb(42, 63, 95); fill-opacity: 1; white-space: pre;">uncertainty_1_5</text><g class="layers" style="opacity: 1;"><g class="legendfill"/><g class="legendlines"><path class="js-line" d="M5,0h30" style="fill: none; stroke: rgb(255, 102, 146); stroke-opacity: 1; stroke-width: 2px;"/></g><g class="legendsymbols"><g class="legendpoints"/></g></g><rect class="legendtoggle" x="0" y="-9.5" width="125.734375" height="19" style="fill: rgb(0, 0, 0); fill-opacity: 0;"/></g></g><g class="groups" transform=""><g class="traces" transform="translate(0,165.7)" style="opacity: 1;"><text class="legendtext" text-anchor="start" x="40" y="4.680000000000001" style="font-family: 'Open Sans', verdana, arial, sans-serif; font-size: 12px; fill: rgb(42, 63, 95); fill-opacity: 1; white-space: pre;">uncertainty_1_7</text><g class="layers" style="opacity: 1;"><g class="legendfill"/><g class="legendlines"><path class="js-line" d="M5,0h30" style="fill: none; stroke: rgb(182, 232, 128); stroke-opacity: 1; stroke-width: 2px;"/></g><g class="legendsymbols"><g class="legendpoints"/></g></g><rect class="legendtoggle" x="0" y="-9.5" width="125.734375" height="19" style="fill: rgb(0, 0, 0); fill-opacity: 0;"/></g></g></g><rect class="scrollbar" rx="20" ry="3" width="0" height="0" x="0" y="0" style="fill: rgb(128, 139, 164); fill-opacity: 1;"/></g><g class="g-gtitle"><text class="gtitle" x="35" y="50" text-anchor="start" dy="0em" style="font-family: 'Open Sans', verdana, arial, sans-serif; font-size: 17px; fill: rgb(42, 63, 95); opacity: 1; font-weight: normal; white-space: pre;">Features</text></g><g class="g-xtitle"><text class="xtitle" x="314" y="475.909375" text-anchor="middle" style="font-family: 'Open Sans', verdana, arial, sans-serif; font-size: 14px; fill: rgb(42, 63, 95); opacity: 1; font-weight: normal; white-space: pre;">ds</text></g><g class="g-ytitle"><text class="ytitle" transform="rotate(-90,34.340625,260)" x="34.340625" y="260" text-anchor="middle" style="font-family: 'Open Sans', verdana, arial, sans-serif; font-size: 14px; fill: rgb(42, 63, 95); opacity: 1; font-weight: normal; white-space: pre;">value</text></g></g></svg>